<svg width="98" height="29" viewBox="0 0 98 29" fill="none" xmlns="http://www.w3.org/2000/svg">
<path d="M51.5 24.5H47V0H58.5V3.5H51.5V11H57V14.5H51.5V24.5Z" fill="#E50914"/>
<path d="M61 25V0H65.5V21.5C68.5 21.5 70.5 21.3333 72.5 21.5V25.5C70.9 25.1 64.1667 25 61 25Z" fill="#E50914"/>
<path d="M79.5 0H75.5V25.5C76.3 25.5 78.5 25.8333 79.5 26V0Z" fill="#E50914"/>
<path d="M87 13.5L82.5 0H87L90 10L93 0H97.5L93 13.5L97.5 29L93 28L89.5 17L86 27L82.5 26.5L87 13.5Z" fill="#E50914"/>
<path d="M0 27V0H45V24.5C39.4615 24.1075 16 24.5 0 27Z" fill="#E50914"/>
</svg>
